Format : AVI
Format/Info : Audio Video Interleave
Format profile : OpenDML
File size : 697 MiB
Duration : 1h 31mn
Overall bit rate : 1 067 Kbps
Writing application : AVI-Mux GUI 1.17.8.3, Feb 16 201019:42:50

Video
ID : 0
Format : MPEG-4 Visual
Format profile : AdvancedSimple@L5
Format settings, BVOP : Yes
Format settings, QPel : No
Format settings, GMC : No warppoints
Format settings, Matrix : Default (H.263)
Codec ID : XVID
Codec ID/Hint : XviD
Duration : 1h 31mn
Bit rate : 614 Kbps
Width : 704 pixels
Height : 384 pixels
Display aspect ratio : 16:9
Frame rate : 23.976 fps
Resolution : 24 bits
Colorimetry : 4:2:0
Scan type : Progressive
Bits/(Pixel*Frame) : 0.095
Stream size : 401 MiB (58%)
Writing library : XviD 1.2.1 (UTC 2008-12-04)

Audio
ID : 1
Format : AC-3
Format/Info : Audio Coding 3
Codec ID : 2000
Duration : 1h 31mn
Bit rate mode : Constant
Bit rate : 448 Kbps
Channel(s) : 2 channels
Channel positions : L R
Sampling rate : 48.0 KHz
Stream size : 293 MiB (42%)
Alignment : Aligned on interleaves
Interleave, duration : 64 ms (1.53 video frames)
Interleave, preload duration : 192 ms

Starring
Nicole Kidman
Aaron Eckhart
Dianne Wiest
Tammy Blanchard
Miles Teller
Sandra Oh

Eight months after the death of their young son, Danny, Becca (Nicole Kidman) and Howie Corbett (Aaron Eckhart) continue to cope with their grief. Both begin platonic relationships: Becca becomes closer acquainted with the teenage driver who accidentally hit the boy, while Howie smokes cannabis with an acquaintance from a bereavement support group.
 
http://www.imdb.com/title/tt0935075/

screens
 
http://img571.imageshack.us/img571/1692/rabitholexvidviceavisna.jpg 
http://img577.imageshack.us/img577/1692/rabitholexvidviceavisna.jpg 
http://img840.imageshack.us/img840/1692/rabitholexvidviceavisna.jpg 
http://img718.imageshack.us/img718/1692/rabitholexvidviceavisna.jpg